<svg width="12" height="13" viewBox="0 0 12 13" fill="none" xmlns="http://www.w3.org/2000/svg">
<path d="M7.61121 6.5C7.61121 7.33485 6.88985 8.01163 6 8.01163C5.11015 8.01163 4.38879 7.33485 4.38879 6.5C4.38879 5.66515 5.11015 4.98837 6 4.98837C6.88985 4.98837 7.61121 5.66515 7.61121 6.5Z" stroke="#EDEDED" stroke-width="1.5" stroke-linejoin="round"/>
<path d="M4.12284 1.98145C5.13293 0.915242 6.86707 0.915242 7.87716 1.98145V1.98145C8.22991 2.35379 8.69568 2.61188 9.19928 2.70914L9.40541 2.74894C10.7712 3.0127 11.5824 4.42977 11.1183 5.74111V5.74111C10.9446 6.23211 10.9446 6.76789 11.1183 7.25889V7.25889C11.5824 8.57023 10.7712 9.9873 9.40541 10.2511L9.19928 10.2909C8.69568 10.3881 8.22991 10.6462 7.87716 11.0186V11.0186C6.86707 12.0848 5.13293 12.0848 4.12284 11.0186V11.0186C3.77009 10.6462 3.30432 10.3881 2.80072 10.2909L2.59459 10.2511C1.22878 9.9873 0.417551 8.57023 0.881667 7.25889V7.25889C1.05545 6.76789 1.05545 6.23211 0.881668 5.74111V5.74111C0.417551 4.42977 1.22878 3.0127 2.59459 2.74894L2.80072 2.70914C3.30432 2.61188 3.77009 2.35379 4.12284 1.98145V1.98145Z" stroke="#EDEDED" stroke-width="1.5" stroke-linejoin="round"/>
</svg>
