<svg width="14" height="13" viewBox="0 0 14 13" fill="none" xmlns="http://www.w3.org/2000/svg">
<path d="M2.8114 3.08389C3.46159 2.44995 3.78669 2.13298 4.10218 1.9086C5.83706 0.674784 8.16294 0.674784 9.89782 1.9086C10.2133 2.13298 10.5384 2.44995 11.1886 3.08389V3.08389C11.4852 3.37302 11.6334 3.51759 11.7648 3.6679C12.471 4.47598 12.8985 5.48985 12.9841 6.55964C13 6.75862 13 6.96571 13 7.37989V10C13 11.1046 12.1046 12 11 12V12C9.89543 12 9 11.1046 9 10V9.45C9 8.34543 8.10457 7.45 7 7.45V7.45C5.89543 7.45 5 8.34543 5 9.45V10C5 11.1046 4.10457 12 3 12V12C1.89543 12 1 11.1046 1 10V7.37989C1 6.96571 1 6.75862 1.01591 6.55964C1.10147 5.48985 1.52897 4.47598 2.23521 3.6679C2.36657 3.51759 2.51485 3.37302 2.8114 3.08389V3.08389Z" stroke="#EDEDED" stroke-width="1.5" stroke-linejoin="round"/>
</svg>
