<svg width="14" height="15" viewBox="0 0 14 15" fill="none" xmlns="http://www.w3.org/2000/svg">
<path d="M5.33333 6.16667L9 4.16667M5.33333 8.83333L9 10.8333M11 13.5V13.5C12.1046 13.5 13 12.6046 13 11.5V11.5C13 10.3954 12.1046 9.5 11 9.5V9.5C9.89543 9.5 9 10.3954 9 11.5V11.5C9 12.6046 9.89543 13.5 11 13.5ZM11 5.5V5.5C12.1046 5.5 13 4.60457 13 3.5V3.5C13 2.39543 12.1046 1.5 11 1.5V1.5C9.89543 1.5 9 2.39543 9 3.5V3.5C9 4.60457 9.89543 5.5 11 5.5ZM3.33333 9.83333V9.83333C4.622 9.83333 5.66667 8.78866 5.66667 7.5V7.5C5.66667 6.21134 4.622 5.16667 3.33333 5.16667V5.16667C2.04467 5.16667 1 6.21134 1 7.5V7.5C1 8.78866 2.04467 9.83333 3.33333 9.83333Z" stroke="#EDEDED" stroke-width="1.5" stroke-linecap="round" stroke-linejoin="round"/>
</svg>
